<svg width="11" height="12" viewBox="0 0 11 12" fill="none" xmlns="http://www.w3.org/2000/svg">
<path d="M2.8959 0.793138C2.61723 1.0718 2.60256 1.27714 2.60256 4.8998C2.60256 8.52247 2.61723 8.7278 2.8959 9.00647C3.17456 9.28514 3.3799 9.2998 6.34256 9.2998C9.30523 9.2998 9.51056 9.28514 9.78923 9.00647C10.0679 8.7278 10.0826 8.52247 10.0826 5.9558V3.21314L8.71856 1.84914L7.36923 0.499804H5.2719C3.3799 0.499804 3.1599 0.529138 2.8959 0.793138ZM8.3079 3.55047C7.00256 3.60914 7.00256 3.60914 7.00256 2.37714V1.32114L8.10256 2.40647L9.21723 3.50647L8.3079 3.55047Z" fill="black"/>
<path d="M0.695906 2.99333C0.417239 3.272 0.402573 3.47733 0.402573 7.1C0.402573 10.7227 0.417239 10.928 0.695906 11.2067C0.974573 11.4853 1.17991 11.5 4.14257 11.5C7.10524 11.5 7.31057 11.4853 7.58924 11.2067C7.75057 11.0453 7.88257 10.752 7.88257 10.5613V10.1947L5.31591 10.1507L2.74924 10.1067L2.27991 9.62267L1.79591 9.15333L1.75191 5.92667L1.70791 2.7H1.34124C1.15057 2.7 0.857239 2.832 0.695906 2.99333Z" fill="black"/>
</svg>
