<svg width="30" height="30" viewBox="0 0 30 30" fill="none" xmlns="http://www.w3.org/2000/svg">
<path opacity="0.959" fill-rule="evenodd" clip-rule="evenodd" d="M14.3877 1.64989C14.7997 1.60289 15.1997 1.65289 15.5877 1.79989C17.6377 3.44989 19.6877 5.09989 21.7377 6.74989C21.7772 4.81366 22.7272 4.16365 24.5877 4.79989C24.7377 4.94989 24.8877 5.09989 25.0377 5.24989C25.1377 6.74989 25.2377 8.24989 25.3377 9.7499C25.7511 10.2639 26.2511 10.6639 26.8377 10.9499C27.2602 12.4458 26.7102 13.1458 25.1877 13.0499C25.3266 17.0795 25.1766 21.0795 24.7377 25.0499C24.4877 25.2999 24.2377 25.5499 23.9877 25.7999C17.9877 25.9999 11.9877 25.9999 5.98769 25.7999C5.7377 25.5499 5.48768 25.2999 5.23769 25.0499C4.79879 21.0795 4.64879 17.0795 4.78769 13.0499C3.26516 13.1458 2.71514 12.4458 3.13769 10.9499C6.99179 7.95172 10.7418 4.8517 14.3877 1.64989ZM17.9877 14.8499C19.2877 14.8499 20.5877 14.8499 21.8877 14.8499C21.8877 17.4499 21.8877 20.0499 21.8877 22.6499C20.5877 22.6499 19.2877 22.6499 17.9877 22.6499C17.9877 20.0499 17.9877 17.4499 17.9877 14.8499Z" fill="black"/>
</svg>
