<svg width="20" height="21" viewBox="0 0 20 21" fill="none" xmlns="http://www.w3.org/2000/svg">
<path d="M7.88886 2.81111C5.51108 3.56667 3.75553 5.07778 2.73331 7.27778C2.19997 8.41111 2.11108 8.9 2.11108 10.5C2.11108 12.1 2.19997 12.5889 2.73331 13.7444C5.6222 20.0111 14.3333 19.9889 17.2666 13.7222C17.8 12.5889 17.8889 12.1 17.8889 10.5C17.8889 8.9 17.8 8.41111 17.2666 7.27778C16.6 5.83334 15.4666 4.52222 14.2 3.72222C12.4666 2.61111 9.77775 2.21111 7.88886 2.81111ZM14.7555 5.81111C15.4666 6.56667 15.4444 6.65556 14.2222 7.5C13.3555 8.1 13.3111 8.1 12.8889 7.72222C12.6444 7.5 12.4444 7.25556 12.4444 7.16667C12.4444 6.94445 13.8 5.16667 13.9778 5.16667C14.0666 5.16667 14.4222 5.45556 14.7555 5.81111ZM11.8666 8.7C12.4444 9.3 12.5555 9.56667 12.5555 10.5C12.5555 11.4556 12.4444 11.7 11.8222 12.3222C11.2 12.9444 10.9555 13.0556 9.99997 13.0556C9.04442 13.0556 8.79997 12.9444 8.17775 12.3222C7.55553 11.7 7.44442 11.4556 7.44442 10.5222C7.44442 9.36667 7.99997 8.47778 8.99997 8.03334C9.8222 7.67778 11.1333 7.96667 11.8666 8.7ZM7.2222 13.3889C7.59997 13.8111 7.59997 13.8556 6.99997 14.7222C6.64442 15.2333 6.28886 15.6778 6.17775 15.7667C5.95553 15.8778 4.66664 14.7889 4.66664 14.4778C4.66664 14.3 6.44442 12.9444 6.66664 12.9444C6.75553 12.9444 6.99997 13.1444 7.2222 13.3889Z" fill="black"/>
<path d="M9.42216 10.1445C9.19994 10.7223 9.51105 11.2112 10.0444 11.1223C10.7777 11.0334 10.7777 9.96677 10.0444 9.87788C9.75549 9.83343 9.48883 9.94454 9.42216 10.1445Z" fill="black"/>
</svg>
