<svg width="20" height="20" viewBox="0 0 20 20" fill="none" xmlns="http://www.w3.org/2000/svg">
<path d="M3.66664 0.866694C2.66664 1.31114 2.11108 2.20003 2.11108 3.35558C2.11108 4.28892 2.2222 4.53336 2.84442 5.15558C3.46664 5.7778 3.71108 5.88892 4.66664 5.88892C5.6222 5.88892 5.86664 5.7778 6.48886 5.15558C7.11108 4.53336 7.2222 4.28892 7.2222 3.33336C7.2222 2.40003 7.11108 2.13336 6.53331 1.53336C5.79997 0.800027 4.48886 0.511138 3.66664 0.866694ZM5.2222 3.33336C5.2222 3.73336 5.08886 3.91114 4.71108 3.95558C4.4222 4.00003 4.15553 3.88892 4.08886 3.68892C3.86664 3.11114 4.17775 2.62225 4.71108 2.71114C5.08886 2.75558 5.2222 2.93336 5.2222 3.33336Z" fill="black"/>
<path d="M9.31095 2.64444C8.8665 3.08889 8.6665 3.51111 8.6665 4C8.6665 4.95556 9.71095 6 10.6665 6C11.6221 6 12.6665 4.95556 12.6665 4C12.6665 3.51111 12.4665 3.08889 12.0221 2.64444C11.1332 1.77778 10.1998 1.77778 9.31095 2.64444ZM11.2221 4C11.2221 4.4 11.0887 4.57778 10.7109 4.62222C10.1776 4.71111 9.8665 4.22222 10.0887 3.64444C10.1554 3.44444 10.4221 3.33333 10.7109 3.37778C11.0887 3.42222 11.2221 3.6 11.2221 4Z" fill="black"/>
<path d="M1.7777 7.11119C1.3777 7.51119 1.33325 7.84453 1.33325 11.3334C1.33325 14.8223 1.3777 15.1556 1.7777 15.5556C2.04436 15.8223 2.51103 16.0001 2.99992 16.0001C3.46659 16.0001 3.95547 16.1779 4.19992 16.4223C4.5777 16.8001 4.5777 16.8667 4.26659 17.3779C3.86659 18.0445 4.04436 18.6667 4.64436 18.6667C4.91103 18.6667 5.31103 18.289 5.71103 17.6667C6.28881 16.7334 6.39992 16.6667 7.33325 16.6667C8.26659 16.6667 8.3777 16.7334 8.95547 17.6667C9.35547 18.289 9.75547 18.6667 10.0221 18.6667C10.6221 18.6667 10.7999 18.0445 10.3999 17.3779C10.0888 16.8667 10.0888 16.8001 10.4666 16.4223C10.711 16.1779 11.1999 16.0001 11.6666 16.0001C12.1555 16.0001 12.6221 15.8223 12.8888 15.5556C13.2888 15.1556 13.3333 14.8223 13.3333 11.3334C13.3333 7.84453 13.2888 7.51119 12.8888 7.11119C12.4666 6.68897 12.1555 6.66675 7.33325 6.66675C2.51103 6.66675 2.19992 6.68897 1.7777 7.11119Z" fill="black"/>
<path d="M16.1776 8.35559L14.6665 9.35559V11.3334V13.3111L16.2443 14.3334C17.1109 14.8889 17.9998 15.3334 18.1998 15.2889C18.5109 15.2223 18.5554 14.7556 18.5554 11.3334C18.5554 6.73337 18.5776 6.75559 16.1776 8.35559Z" fill="black"/>
</svg>
