<svg width="20" height="20" viewBox="0 0 20 20" fill="none" xmlns="http://www.w3.org/2000/svg">
<path d="M7.88886 2.31114C5.51108 3.06669 3.75553 4.5778 2.73331 6.7778C2.19997 7.91114 2.11108 8.40003 2.11108 10C2.11108 11.6 2.19997 12.0889 2.73331 13.2445C3.53331 14.9556 5.04442 16.4667 6.77775 17.2667C7.91108 17.8 8.39997 17.8889 9.99997 17.8889C11.6 17.8889 12.0889 17.8 13.2222 17.2667C14.9555 16.4667 16.4666 14.9556 17.2666 13.2445C17.8 12.0889 17.8889 11.6 17.8889 10C17.8889 8.40003 17.8 7.91114 17.2666 6.7778C16.6 5.33336 15.4666 4.02225 14.2 3.22225C12.4666 2.11114 9.77775 1.71114 7.88886 2.31114ZM11.5555 3.7778C12.2 4.42225 12.1111 5.24447 11.3555 6.02225C10.4666 6.88892 9.53331 6.88892 8.64442 6.02225C7.84442 5.20003 7.77775 4.1778 8.48886 3.68891C9.2222 3.1778 11 3.22225 11.5555 3.7778ZM6.33331 7.00003C7.33331 7.9778 6.97775 9.5778 5.66664 10.1334C4.73331 10.5111 3.84442 10.2445 3.57775 9.51114C3.37775 8.95558 3.75553 7.33336 4.2222 6.7778C4.64442 6.26669 5.73331 6.3778 6.33331 7.00003ZM15.9333 7.04447C16.1555 7.40003 16.3111 8.06669 16.3333 8.75558C16.3333 9.75558 16.2666 9.91114 15.7333 10.1778C15.2222 10.4222 15 10.4 14.3555 10.1334C13.4666 9.7778 13.1111 9.20003 13.1111 8.22225C13.1111 6.66669 15.1333 5.82225 15.9333 7.04447ZM10.8889 9.11114C11.1333 9.35558 11.3333 9.75558 11.3333 10C11.3333 10.5778 10.5778 11.3334 9.99997 11.3334C9.75553 11.3334 9.35553 11.1334 9.11108 10.8889C8.86664 10.6445 8.66664 10.2445 8.66664 10C8.66664 9.75558 8.86664 9.35558 9.11108 9.11114C9.35553 8.86669 9.75553 8.66669 9.99997 8.66669C10.2444 8.66669 10.6444 8.86669 10.8889 9.11114ZM7.53331 12.4667C8.24442 12.7111 8.88886 13.6222 8.88886 14.4C8.88886 15.0445 8.04442 16 7.46664 16C6.8222 16 5.19997 14.8445 5.06664 14.2889C4.8222 13.4 5.33331 12.8 6.79997 12.2222C6.8222 12.2222 7.13331 12.3334 7.53331 12.4667ZM13.8889 12.5556C14.7111 12.8889 15.1111 13.5778 14.9333 14.2889C14.8 14.8445 13.1778 16 12.5333 16C11.9778 16 11.1111 15.0445 11.1111 14.4222C11.1111 13.6667 11.6444 12.8222 12.3333 12.5334C13.1555 12.1778 13 12.1778 13.8889 12.5556Z" fill="black"/>
<path d="M17.2667 15.7999C16.7778 16.4666 16.6667 16.8221 16.7778 17.311C16.9778 18.2888 18.0445 19.1555 19.0445 19.1999C19.8 19.2221 19.8889 19.1555 19.8889 18.6888C19.8889 18.2666 19.7333 18.0888 19.1778 17.9555C18.2889 17.7332 18.1333 17.4888 18 16.0666L17.8889 14.911L17.2667 15.7999Z" fill="black"/>
</svg>
