<svg width="20" height="21" viewBox="0 0 20 21" fill="none" xmlns="http://www.w3.org/2000/svg">
<path d="M7.48878 1.98887C7.42211 2.07775 7.311 2.54442 7.22211 3.01109L7.06656 3.83331H5.311C2.62211 3.83331 2.66656 3.74442 2.66656 8.9222V13.1444L2.06656 13.2111C1.57767 13.2555 1.44434 13.3889 1.44434 13.8333C1.44434 14.3666 1.511 14.3889 3.06656 14.4555C3.93322 14.5 4.66656 14.5666 4.66656 14.6333C4.66656 14.7 4.511 15.4555 4.311 16.3C3.911 18.0778 3.99989 18.5666 4.711 18.4555C5.15545 18.3889 5.26656 18.1444 5.64434 16.4333L6.06656 14.5H7.68878H9.311L9.37767 15.7666C9.44434 16.9666 9.48878 17.0555 9.99989 17.0555C10.511 17.0555 10.5554 16.9666 10.6221 15.7666L10.6888 14.5H12.311H13.9332L14.3554 16.4333C14.7332 18.1444 14.8443 18.3889 15.2888 18.4555C15.9999 18.5666 16.0888 18.0778 15.6888 16.3C15.4888 15.4555 15.3332 14.7 15.3332 14.6333C15.3332 14.5666 16.0666 14.5 16.9554 14.4555C18.4888 14.3889 18.5554 14.3666 18.5554 13.8333C18.5554 13.3889 18.4221 13.2555 17.9554 13.2111L17.3332 13.1444V8.9222C17.3332 3.76665 17.3777 3.83331 14.6888 3.83331H12.9554L12.7554 2.87776C12.5777 2.07775 12.4666 1.94442 11.9999 1.94442C11.4888 1.94442 11.4443 2.01109 11.4888 2.87776L11.5332 3.83331H9.99989H8.46656L8.511 2.87776C8.55545 2.07775 8.48878 1.94442 8.06656 1.87776C7.82211 1.83331 7.55545 1.89998 7.48878 1.98887ZM15.111 5.49998C15.7999 6.34442 14.511 7.63331 13.6666 6.94442C13.2666 6.61109 13.2221 5.81109 13.5999 5.43331C13.9777 5.05553 14.7777 5.09998 15.111 5.49998ZM8.24434 8.23331C8.55545 8.43331 9.28878 9.09998 9.84434 9.67776C10.5999 10.4555 11.0221 10.7444 11.3777 10.6778C11.7554 10.6333 11.8888 10.4778 11.8666 10.0555C11.8221 8.96665 13.0443 8.85553 14.3999 9.83331C15.1332 10.3666 15.3332 10.6333 15.3332 11.1666V11.8333H9.99989H4.66656V10.8778C4.68878 9.85553 5.22211 9.01109 6.35545 8.25553C7.15545 7.74442 7.511 7.7222 8.24434 8.23331Z" fill="black"/>
</svg>
