<svg width="20" height="21" viewBox="0 0 20 21" fill="none" xmlns="http://www.w3.org/2000/svg">
<path d="M7.88886 2.81119C5.51108 3.56674 3.75553 5.07786 2.73331 7.27786C2.19997 8.41119 2.11108 8.90008 2.11108 10.5001C2.11108 12.1001 2.19997 12.589 2.73331 13.7445C3.99997 16.4779 6.64442 18.2556 9.68886 18.4556C11.2666 18.5445 11.3333 18.5445 11.9778 17.8779C12.6222 17.2556 12.6666 17.0779 12.6666 15.6334C12.6666 13.4334 12.9555 13.1667 15.3333 13.1667C16.8444 13.1667 17.1778 13.1001 17.5778 12.7001C18 12.2779 18.0444 12.0334 17.9555 10.4112C17.8 7.54452 16.4889 5.18897 14.2 3.7223C12.4666 2.61119 9.77775 2.21119 7.88886 2.81119ZM10.8889 4.27786C11.1333 4.5223 11.3333 4.9223 11.3333 5.16675C11.3333 5.74452 10.5778 6.50008 9.99997 6.50008C9.4222 6.50008 8.66664 5.74452 8.66664 5.16675C8.66664 4.9223 8.86664 4.5223 9.11108 4.27786C9.35553 4.03341 9.75553 3.83341 9.99997 3.83341C10.2444 3.83341 10.6444 4.03341 10.8889 4.27786ZM7.11108 5.83341C7.35553 6.07786 7.55553 6.47786 7.55553 6.7223C7.55553 7.30008 6.79997 8.05563 6.2222 8.05563C5.64442 8.05563 4.88886 7.30008 4.88886 6.7223C4.88886 6.47786 5.08886 6.07786 5.33331 5.83341C5.57775 5.58897 5.97775 5.38897 6.2222 5.38897C6.46664 5.38897 6.86664 5.58897 7.11108 5.83341ZM14.6666 5.83341C14.9111 6.07786 15.1111 6.47786 15.1111 6.7223C15.1111 7.30008 14.3555 8.05563 13.7778 8.05563C13.5333 8.05563 13.1333 7.85563 12.8889 7.61119C12.6444 7.36674 12.4444 6.96675 12.4444 6.7223C12.4444 6.47786 12.6444 6.07786 12.8889 5.83341C13.1333 5.58897 13.5333 5.38897 13.7778 5.38897C14.0222 5.38897 14.4222 5.58897 14.6666 5.83341ZM5.55553 9.61119C5.79997 9.85563 5.99997 10.2556 5.99997 10.5001C5.99997 11.0779 5.24442 11.8334 4.66664 11.8334C4.08886 11.8334 3.33331 11.0779 3.33331 10.5001C3.33331 10.2556 3.53331 9.85563 3.77775 9.61119C4.0222 9.36674 4.4222 9.16675 4.66664 9.16675C4.91108 9.16675 5.31108 9.36674 5.55553 9.61119ZM16.2222 9.61119C16.4666 9.85563 16.6666 10.2556 16.6666 10.5001C16.6666 11.0779 15.9111 11.8334 15.3333 11.8334C15.0889 11.8334 14.6889 11.6334 14.4444 11.389C14.2 11.1445 14 10.7445 14 10.5001C14 10.2556 14.2 9.85563 14.4444 9.61119C14.6889 9.36674 15.0889 9.16675 15.3333 9.16675C15.5778 9.16675 15.9778 9.36674 16.2222 9.61119ZM10.7778 14.389C11.0889 14.6779 11.3333 15.189 11.3333 15.5001C11.3333 15.8112 11.0889 16.3223 10.7778 16.6112C10.0889 17.3223 9.24442 17.3223 8.55553 16.6112C8.24442 16.3223 7.99997 15.8112 7.99997 15.5001C7.99997 14.7667 8.93331 13.8334 9.66664 13.8334C9.97775 13.8334 10.4889 14.0779 10.7778 14.389Z" fill="black"/>
</svg>
