<svg width="30" height="30" viewBox="0 0 30 30" fill="none" xmlns="http://www.w3.org/2000/svg">
<path opacity="0.871" fill-rule="evenodd" clip-rule="evenodd" d="M22.95 3.74997C25.7551 3.70959 26.5551 4.95957 25.35 7.49997C23.2402 7.90176 21.4902 8.95176 20.1 10.65C19.6964 12.6759 18.5464 13.3259 16.65 12.6C14.3267 9.22635 11.6267 8.82636 8.54999 11.4C8.0885 11.9796 7.73849 12.6296 7.49999 13.35C4.4 14.55 3.29999 13.55 4.19999 10.35C5.07911 9.88008 6.02912 9.63009 7.04999 9.59997C7.85 9.09996 8.64998 8.59998 9.44999 8.09997C9.82142 6.03444 11.0214 5.33445 13.05 5.99997C14.283 8.01648 16.083 8.91648 18.45 8.69997C19.5 7.84998 20.55 6.99996 21.6 6.14997C21.6739 5.09856 22.1239 4.29855 22.95 3.74997Z" fill="black"/>
<path opacity="0.941" fill-rule="evenodd" clip-rule="evenodd" d="M22.05 11.8501C23.3302 11.761 24.5802 11.861 25.8 12.1501C25.95 16.749 26 21.349 25.95 25.9501C24.55 25.9501 23.15 25.9501 21.75 25.9501C21.6549 21.2268 21.7549 16.5268 22.05 11.8501Z" fill="black"/>
<path opacity="0.93" fill-rule="evenodd" clip-rule="evenodd" d="M10.35 13.6501C11.355 13.6006 12.355 13.6506 13.35 13.8001C13.5 13.9501 13.65 14.1001 13.8 14.2501C13.95 18.1488 14 22.0488 13.95 25.9501C12.55 25.9501 11.15 25.9501 9.75 25.9501C9.70002 22.0488 9.75003 18.1488 9.9 14.2501C10.1152 14.0868 10.2652 13.8868 10.35 13.6501Z" fill="black"/>
<path opacity="0.927" fill-rule="evenodd" clip-rule="evenodd" d="M16.05 15.75C17.3303 15.6609 18.5802 15.7609 19.8 16.05C19.95 19.3485 20 22.6485 19.95 25.95C18.55 25.95 17.15 25.95 15.75 25.95C15.6568 22.5257 15.7568 19.1257 16.05 15.75Z" fill="black"/>
<path opacity="0.932" fill-rule="evenodd" clip-rule="evenodd" d="M4.04998 17.8501C5.33023 17.761 6.58021 17.861 7.79998 18.1501C7.94992 20.7482 7.9999 23.3482 7.94998 25.9501C6.54997 25.9501 5.14999 25.9501 3.74998 25.9501C3.65866 23.2249 3.75865 20.5249 4.04998 17.8501Z" fill="black"/>
</svg>
