<svg width="123" height="30" viewBox="0 0 123 30" fill="none" xmlns="http://www.w3.org/2000/svg">
<path d="M12.7256 28.436L2.39207 16.3323L7.94154 1.56377L18.2751 13.6674L12.7256 28.436Z" fill="#014BA0"/>
<path d="M12.6108 25.9145L11.8249 14.736L16.4855 15.3603L12.6108 25.9145Z" fill="white"/>
<path d="M8.13322 4.14102L9.48888 15.0895L4.45119 14.573L8.13322 4.14102Z" fill="white"/>
<path d="M34.4381 8.2L39.1881 21.5H36.5661L35.5591 18.631H30.5811L29.5741 21.5H26.9521L31.7021 8.2H34.4381ZM33.0511 11.544L31.3791 16.351H34.7421L33.0891 11.544H33.0511ZM51.1738 21.5H48.2478L45.3978 16.484H43.7448V21.5H41.0848V8.2H48.2858L50.4898 9.473V15.211L48.2858 16.484L51.1738 21.5ZM43.7448 10.48V14.204H47.8298V10.48H43.7448ZM58.8316 10.48V21.5H56.1716V10.48H52.5806V8.2H62.4226V10.48H58.8316ZM71.6444 17.605H74.3044V20.322L72.1004 21.595H66.7234L64.5194 20.322V9.378L66.7234 8.105H72.1004L74.3044 9.378V12.095H71.6444V10.385H67.1794V19.315H71.6444V17.605ZM80.0007 15.8V21.5H77.3407V8.2H80.0007V13.52H85.2257V8.2H87.8857V21.5H85.2257V15.8H80.0007ZM97.2643 8.2L102.014 21.5H99.3923L98.3853 18.631H93.4073L92.4003 21.5H89.7783L94.5283 8.2H97.2643ZM95.8773 11.544L94.2053 16.351H97.5683L95.9153 11.544H95.8773ZM103.911 21.5V8.2H106.571V21.5H103.911ZM112.453 12.893V21.5H109.793V8.2H112.282L118.02 16.807H118.058V8.2H120.718V21.5H118.229L112.491 12.893H112.453Z" fill="black"/>
</svg>
