<svg width="30" height="30" viewBox="0 0 30 30" fill="none" xmlns="http://www.w3.org/2000/svg">
<path d="M12 3.5C11.7 3.86667 10.9 4 9.16666 4C6.26666 4 5.13333 4.66667 4.8 6.6C4.7 7.26667 4.53333 8.1 4.43333 8.43334C4.3 8.96667 4.43333 9.03334 5.4 8.93334C6.33333 8.83334 6.5 8.7 6.6 7.83334C6.8 6.2 7.16666 6 10 6C11.9 6 12.7 5.86667 13 5.5C13.2667 5.2 14 5 15 5C16 5 16.7333 5.2 17 5.5C17.3 5.86667 18.1 6 20 6C22.8333 6 23.2 6.2 23.4 7.83334C23.5 8.7 23.6667 8.83334 24.6 8.93334C25.5667 9.03334 25.7 8.96667 25.5667 8.43334C25.4667 8.1 25.3 7.26667 25.2 6.6C24.8667 4.66667 23.7333 4 20.8333 4C19.1 4 18.3 3.86667 18 3.5C17.7 3.13334 16.9 3 15 3C13.1 3 12.3 3.13334 12 3.5Z" fill="black"/>
<path d="M2.23333 11.2333C2.1 11.3333 2 12.2 2 13.1C2 14.4 2.13333 14.7667 2.6 14.9C3.1 15.0333 3.33333 15.8667 4 19.9C4.56667 23.4333 4.93333 24.9333 5.4 25.4C5.96667 25.9667 6.7 26 15 26C23.3 26 24.0333 25.9667 24.6 25.4C25.0667 24.9333 25.4333 23.4333 26 19.9C26.6667 15.8333 26.9 15.0333 27.4 14.8667C27.9333 14.7333 28.0333 14.4333 27.9333 12.9333L27.8333 11.1667L15.1333 11.0667C8.16667 11.0333 2.36667 11.1 2.23333 11.2333ZM10.8333 19.5V22.8333H10C9.16667 22.8333 9.16667 22.8 9.06667 19.8667C8.96667 16.3667 9.06667 15.9333 10.0667 16.0667C10.8 16.1667 10.8333 16.3 10.8333 19.5ZM15.8333 19.5V22.8333H15C14.1667 22.8333 14.1667 22.8 14.0667 19.8667C13.9667 16.3667 14.0667 15.9333 15.0667 16.0667C15.8 16.1667 15.8333 16.3 15.8333 19.5ZM20.8333 19.5V22.8333H20C19.1667 22.8333 19.1667 22.8 19.0667 19.8667C18.9667 16.3667 19.0667 15.9333 20.0667 16.0667C20.8 16.1667 20.8333 16.3 20.8333 19.5Z" fill="black"/>
</svg>
