<svg width="30" height="30" viewBox="0 0 30 30" fill="none" xmlns="http://www.w3.org/2000/svg">
<path opacity="0.954" fill-rule="evenodd" clip-rule="evenodd" d="M13.95 1.6499C17.9492 2.04757 18.9491 4.04756 16.95 7.6499C17.093 7.94318 17.293 8.19317 17.55 8.3999C19.2911 8.26544 21.0411 8.01545 22.8 7.6499C23.8203 7.70939 24.5203 8.20937 24.9 9.1499C25.1 14.2499 25.1 19.3499 24.9 24.4499C24.6646 24.9857 24.3146 25.4357 23.85 25.7999C17.85 25.9999 11.85 25.9999 5.84997 25.7999C5.38533 25.4357 5.03532 24.9857 4.79997 24.4499C4.59996 23.1499 4.59996 21.8499 4.79997 20.5499C5.0325 20.033 5.43249 19.733 5.99997 19.6499C7.24842 20.4497 8.59842 20.6997 10.05 20.3999C11.1252 19.9008 11.6252 19.0508 11.55 17.8499C11.2832 15.5124 9.98316 14.6624 7.64997 15.2999C6.74964 16.1257 5.84964 16.1757 4.94997 15.4499C4.61094 13.3651 4.56093 11.2651 4.79997 9.1499C5.17968 8.20937 5.87967 7.70939 6.89997 7.6499C8.65881 8.01545 10.4088 8.26544 12.15 8.3999C12.7871 7.67762 12.7371 6.92762 12 6.1499C11.3596 4.03484 12.0096 2.53484 13.95 1.6499Z" fill="black"/>
</svg>
