<svg width="15" height="15" viewBox="0 0 15 15" fill="none" xmlns="http://www.w3.org/2000/svg">
<path opacity="0.906" fill-rule="evenodd" clip-rule="evenodd" d="M10.725 1.42517C11.1281 1.40056 11.5281 1.42556 11.925 1.50017C12.4 1.97518 12.875 2.45017 13.35 2.92517C13.45 3.32518 13.45 3.72517 13.35 4.12517C12.8977 4.60259 12.4227 5.05259 11.925 5.47517C11.025 4.67518 10.175 3.82517 9.375 2.92517C9.82833 2.42218 10.2783 1.92218 10.725 1.42517Z" fill="white"/>
<path opacity="0.936" fill-rule="evenodd" clip-rule="evenodd" d="M8.325 3.8252C9.24471 4.66977 10.1447 5.54477 11.025 6.4502C9.05 8.4252 7.07501 10.4002 5.1 12.3752C4.99403 12.1381 4.86902 11.9131 4.725 11.7002C3.5 11.8752 2.975 11.3502 3.15 10.1252C2.97434 9.91622 2.74934 9.79122 2.475 9.7502C4.45529 7.79498 6.40529 5.81997 8.325 3.8252Z" fill="white"/>
<path opacity="0.807" fill-rule="evenodd" clip-rule="evenodd" d="M1.875 11.3252C2.44464 11.8196 2.99464 12.3446 3.525 12.9002C1.43915 13.9894 0.889153 13.4644 1.875 11.3252Z" fill="white"/>
</svg>
