<svg width="11" height="12" viewBox="0 0 11 12" fill="none" xmlns="http://www.w3.org/2000/svg">
<path d="M2.26562 5.92773C1.80534 5.92773 1.41113 5.82292 1.08301 5.61328C0.75944 5.39909 0.513346 5.10059 0.344727 4.71777C0.176107 4.3304 0.0917969 3.88151 0.0917969 3.37109C0.0917969 2.86979 0.176107 2.42773 0.344727 2.04492C0.517904 1.65755 0.768555 1.35905 1.09668 1.14941C1.4248 0.935221 1.81445 0.828125 2.26562 0.828125C2.73503 0.828125 3.13379 0.935221 3.46191 1.14941C3.79004 1.35905 4.03613 1.65527 4.2002 2.03809C4.36882 2.4209 4.45312 2.86523 4.45312 3.37109C4.45312 3.88151 4.36654 4.3304 4.19336 4.71777C4.02474 5.10059 3.77637 5.39909 3.44824 5.61328C3.12012 5.82292 2.72591 5.92773 2.26562 5.92773ZM2.26562 4.83398C2.56641 4.83398 2.79427 4.7041 2.94922 4.44434C3.10417 4.18457 3.18164 3.82682 3.18164 3.37109C3.18164 2.91992 3.10645 2.56445 2.95605 2.30469C2.80566 2.04492 2.57552 1.91732 2.26562 1.92188C1.9694 1.92188 1.74154 2.05404 1.58203 2.31836C1.42708 2.57812 1.34961 2.92904 1.34961 3.37109C1.34961 3.82227 1.42708 4.18001 1.58203 4.44434C1.74154 4.7041 1.9694 4.83398 2.26562 4.83398ZM8.73242 11.2598C8.27214 11.2643 7.87793 11.1618 7.5498 10.9521C7.22624 10.738 6.98014 10.4395 6.81152 10.0566C6.6429 9.66927 6.55859 9.22266 6.55859 8.7168C6.55859 8.21094 6.6429 7.7666 6.81152 7.38379C6.9847 6.99642 7.23535 6.69564 7.56348 6.48145C7.8916 6.26725 8.28125 6.16016 8.73242 6.16016C9.19727 6.16016 9.59375 6.26725 9.92188 6.48145C10.25 6.69108 10.4984 6.98958 10.667 7.37695C10.8356 7.75977 10.9199 8.20638 10.9199 8.7168C10.9199 9.22721 10.8333 9.67383 10.6602 10.0566C10.4915 10.4395 10.2432 10.738 9.91504 10.9521C9.58691 11.1618 9.19271 11.2643 8.73242 11.2598ZM8.73242 10.166C9.03776 10.166 9.26562 10.0384 9.41602 9.7832C9.57096 9.52344 9.64844 9.16797 9.64844 8.7168C9.64844 8.25651 9.57324 7.89648 9.42285 7.63672C9.27246 7.37695 9.04232 7.24935 8.73242 7.25391C8.44076 7.25391 8.21517 7.38835 8.05566 7.65723C7.89616 7.92155 7.81641 8.27474 7.81641 8.7168C7.81641 9.16341 7.89388 9.5166 8.04883 9.77637C8.20833 10.0361 8.4362 10.166 8.73242 10.166ZM8.17188 1.10156H9.55273L2.74414 11H1.36328L8.17188 1.10156Z" fill="#27292B"/>
</svg>
