<?xml version="1.0" encoding="UTF-8"?>
<!DOCTYPE svg PUBLIC "-//W3C//DTD SVG 1.1//EN" "http://www.w3.org/Graphics/SVG/1.1/DTD/svg11.dtd">
<svg xmlns="http://www.w3.org/2000/svg" version="1.1" width="100px" height="100px" style="shape-rendering:geometricPrecision; text-rendering:geometricPrecision; image-rendering:optimizeQuality; fill-rule:evenodd; clip-rule:evenodd" xmlns:xlink="http://www.w3.org/1999/xlink">
<g><path style="opacity:0.954" fill="#000000" d="M 46.5,5.5 C 59.8306,6.82556 63.1639,13.4922 56.5,25.5C 56.9767,26.4776 57.6433,27.3109 58.5,28C 64.3039,27.5518 70.1372,26.7185 76,25.5C 79.401,25.6983 81.7343,27.3649 83,30.5C 83.6667,47.5 83.6667,64.5 83,81.5C 82.2155,83.286 81.0488,84.786 79.5,86C 59.5,86.6667 39.5,86.6667 19.5,86C 17.9512,84.786 16.7845,83.286 16,81.5C 15.3333,77.1667 15.3333,72.8333 16,68.5C 16.7751,66.7769 18.1084,65.7769 20,65.5C 24.1615,68.166 28.6615,68.9993 33.5,68C 37.0842,66.3362 38.7508,63.5029 38.5,59.5C 37.6106,51.7084 33.2773,48.875 25.5,51C 22.4989,53.7526 19.4989,53.9193 16.5,51.5C 15.3699,44.5505 15.2032,37.5505 16,30.5C 17.2657,27.3649 19.599,25.6983 23,25.5C 28.8628,26.7185 34.6961,27.5518 40.5,28C 42.6237,25.5924 42.457,23.0924 40,20.5C 37.8653,13.4498 40.032,8.44978 46.5,5.5 Z"/></g>
</svg>
