<svg width="15" height="15" viewBox="0 0 15 15" fill="none" xmlns="http://www.w3.org/2000/svg">
<path opacity="0.887" fill-rule="evenodd" clip-rule="evenodd" d="M7.14 0.0221145C7.85682 -0.0263593 8.22514 0.313641 8.245 1.04211C8.86008 1.54606 9.34174 1.43272 9.69 0.702115C9.90553 0.544373 10.1322 0.516039 10.37 0.617115C10.5967 1.18378 10.8233 1.75045 11.05 2.31711C11.595 2.18088 12.1617 2.12422 12.75 2.14711C12.8488 2.29886 12.9055 2.46886 12.92 2.65711C12.6602 3.04494 12.5752 3.46994 12.665 3.93211C13.2317 4.15878 13.7983 4.38545 14.365 4.61211C14.4661 4.84993 14.4377 5.07659 14.28 5.29211C13.3474 6.03755 13.4607 6.57589 14.62 6.90711C15.0733 7.30378 15.0733 7.70045 14.62 8.09711C13.4607 8.42834 13.3474 8.96668 14.28 9.71211C14.4572 10.6374 14.0889 10.9207 13.175 10.5621C13.005 10.7321 12.835 10.9021 12.665 11.0721C12.8012 11.6171 12.8579 12.1838 12.835 12.7721C12.6833 12.871 12.5133 12.9276 12.325 12.9421C11.9372 12.6823 11.5122 12.5973 11.05 12.6871C10.8233 13.2538 10.5967 13.8205 10.37 14.3871C10.1322 14.4882 9.90553 14.4599 9.69 14.3021C8.94457 13.3695 8.40623 13.4828 8.075 14.6421C7.67834 15.0955 7.28166 15.0955 6.885 14.6421C6.55377 13.4828 6.01543 13.3695 5.27 14.3021C5.05447 14.4599 4.82781 14.4882 4.59 14.3871C4.36334 13.8205 4.13666 13.2538 3.91 12.6871C3.36501 12.8234 2.79834 12.88 2.21 12.8571C2.11116 12.7054 2.05448 12.5354 2.04 12.3471C2.29978 11.9593 2.38478 11.5343 2.295 11.0721C1.72834 10.8455 1.16166 10.6188 0.595 10.3921C0.493925 10.1543 0.522259 9.92764 0.68 9.71211C1.61264 8.96668 1.4993 8.42834 0.34 8.09711C-0.113333 7.70045 -0.113333 7.30378 0.34 6.90711C1.4993 6.57589 1.61264 6.03755 0.68 5.29211C0.522259 5.07659 0.493925 4.84993 0.595 4.61211C1.16166 4.38545 1.72834 4.15878 2.295 3.93211C2.15876 3.38713 2.1021 2.82045 2.125 2.23211C2.27674 2.13328 2.44674 2.0766 2.635 2.06211C3.87127 2.70038 4.43794 2.30372 4.335 0.872115C4.46058 0.689492 4.63058 0.576158 4.845 0.532115C5.25769 0.661279 5.56935 0.916281 5.78 1.29711C6.13142 1.38817 6.4431 1.30317 6.715 1.04211C6.7551 0.649188 6.89678 0.309188 7.14 0.0221145ZM6.46 3.08211C9.28185 2.82013 11.0952 4.03847 11.9 6.73711C10.7667 6.85045 9.63334 6.85045 8.5 6.73711C8.18633 6.49522 7.84633 6.29688 7.48 6.14211C6.97 5.23545 6.46 4.32878 5.95 3.42211C6.13727 3.30725 6.30727 3.19392 6.46 3.08211ZM4.59 4.10211C5.03829 4.69519 5.46329 5.31852 5.865 5.97211C6.26856 6.71901 6.38189 7.51235 6.205 8.35211C5.73777 9.23028 5.22777 10.0803 4.675 10.9021C2.55196 8.65999 2.52363 6.39332 4.59 4.10211ZM8.5 8.18211C9.63475 8.15384 10.7681 8.18218 11.9 8.26711C10.94 11.2399 8.95667 12.3449 5.95 11.5821C6.46 10.6755 6.97 9.76878 7.48 8.86211C7.88815 8.71632 8.22815 8.48964 8.5 8.18211Z" fill="black"/>
</svg>
