<svg width="16" height="18" viewBox="0 0 16 18" fill="none" xmlns="http://www.w3.org/2000/svg">
<path opacity="0.846" fill-rule="evenodd" clip-rule="evenodd" d="M6.24427 1.00976C7.57884 0.823412 8.79302 1.10093 9.88677 1.84233C11.3793 1.33662 12.6281 1.68354 13.6333 2.88304C13.894 3.40621 13.9981 3.96126 13.9456 4.54818C13.441 4.61221 12.9554 4.54281 12.4886 4.34004C12.1956 3.42109 11.5712 3.07418 10.6153 3.29933C10.6153 3.71561 10.6153 4.1319 10.6153 4.54818C10.0602 4.54818 9.50518 4.54818 8.95013 4.54818C9.09014 3.30299 8.53511 2.60917 7.28499 2.46676C6.1863 2.71903 5.70065 3.41285 5.82799 4.54818C5.27293 4.54818 4.7179 4.54818 4.16285 4.54818C4.05836 2.88202 4.75216 1.70254 6.24427 1.00976Z" fill="black"/>
<path opacity="0.967" fill-rule="evenodd" clip-rule="evenodd" d="M1.24886 3.09131C1.80392 3.09131 2.35895 3.09131 2.914 3.09131C2.914 3.57697 2.914 4.06265 2.914 4.54831C1.83847 4.33848 1.49156 4.72007 1.87329 5.69309C6.26279 5.69773 10.6338 5.83648 14.9863 6.10938C15.1165 6.26557 15.2206 6.43903 15.2985 6.62973C15.4373 9.82125 15.4373 13.0128 15.2985 16.2043C15.1944 16.5859 14.9516 16.8287 14.57 16.9328C9.97241 17.1363 5.39327 17.0669 0.832576 16.7247C0.510205 16.472 0.267365 16.1598 0.104077 15.788C-0.0346922 11.9721 -0.0346922 8.15611 0.104077 4.34016C0.387088 3.8151 0.768676 3.39882 1.24886 3.09131ZM12.0723 10.1682C13.3877 10.1306 13.908 10.755 13.6334 12.0414C12.7855 12.8987 12.0223 12.8293 11.3438 11.8333C11.1938 11.0936 11.4366 10.5386 12.0723 10.1682Z" fill="black"/>
</svg>
